# xmcd
#
# Track frame offsets:
# 150
# 18080
# 35932
# 51737
# 71510
# 92980
# 113397
# 128065
#
# Disc length: 1943 seconds
#
# Revision: 1
# Processed by: cddbd v1.5.1PL0 Copyright (c) Steve Scherf et al.
# Submitted via: Easy CD Ripper v2.27
#
DISCID=6b079508
DTITLE=Real de Catorce - Mis amigos muertos
DYEAR=1989
DGENRE=Blues
TTITLE0=Radio morir - Real de Catorce
TTITLE1=Patios de cristal - Real de Catorce
TTITLE2=Recargado - Real de Catorce
TTITLE3=Barcos - Real de Catorce
TTITLE4=Malo - Real de Catorce
TTITLE5=Polvo en los ojos - Real de Catorce
TTITLE6=Llevate la historia - Real de Catorce
TTITLE7=Botellas de mar - Real de Catorce
EXTD=
EXTT0=
EXTT1=
EXTT2=
EXTT3=
EXTT4=
EXTT5=
EXTT6=
EXTT7=
PLAYORDER=
